<svg xmlns="http://www.w3.org/2000/svg" xmlns:xlink="http://www.w3.org/1999/xlink" viewBox="0 0 566.25 506.94"><defs><style>.a,.b,.d{fill:none;}.b{stroke:#9e9e9e;stroke-width:0.5px;}.b,.c,.d{stroke-miterlimit:10;}.c,.d{stroke:#fff;stroke-width:2px;}.c,.e{fill:url(#a);}</style><pattern id="a" width="5.34" height="5.34" patternUnits="userSpaceOnUse" viewBox="0 0 5.34 5.34"><rect class="a" width="5.34" height="5.34"/><line class="b" x1="0.18" y1="5.17" x2="5.17" y2="0.18"/></pattern></defs><title>IMG_9508</title><path class="c" d="M508,161.63c2-9.23,11.15-54.71-16.9-94-17.44-24.46-40.6-34.39-52.9-39.67-47.07-20.2-89.92-8.4-98.44-5.88C325,26.41,287.12,37.61,266.33,73.47c-13.69,23.59-13.44,46.6-13.23,66.86.29,27.27,6.59,52.83,12.36,67.64,3.33,8.53,6.49,13.5,8.21,13.17,2.35-.44,3.72-11-.73-55.83,4.7-3.41,17.21-13.31,21.3-27.92a31.11,31.11,0,0,0,1.47-9.55c-.13-10.23,3.17-6.68,3.68-13.23.58-7.48.53-11.76,7.34-14,11.66-3.76,22.36-4.9,30.13-.73,42.59,22.82,109,11.63,135.92,22a17,17,0,0,1,7.34,5.14c5.31,6.65,3.7,16.4,2.21,22l13.22,15.43-.73,24.25s-2.21,22.77,2.2,29.38S508,161.63,508,161.63Z" transform="translate(-101.93 -15.32)"/><path class="d" d="M273.67,221.14c-16.89-35.26-26.45-19.83-26.45-19.83.74,22,14.7,72,14.7,72s0,11,14.69,13.22Z" transform="translate(-101.93 -15.32)"/><path class="d" d="M497.86,221.14c16.9-35.26,26.45-19.83,26.45-19.83-.74,22-14.7,72-14.7,72s0,11-14.69,13.22Z" transform="translate(-101.93 -15.32)"/><path class="d" d="M375.8,390.86" transform="translate(-101.93 -15.32)"/><path class="d" d="M494.9,286.53S496.37,310,470.66,338s-81.55,55.1-81.55,55.1h-6.69s-55.83-27.18-81.55-55.1-24.24-51.43-24.24-51.43" transform="translate(-101.93 -15.32)"/><path class="e" d="M376.78,337.22c3-6.13,26.12-3.49,27.42,2.45.43,1.94-1.81,2.68-5.63,8.57-5.41,8.36-5,13.15-7.59,13.47-2.75.35-5.41-4.71-10.41-14.2C377.52,341.73,376,338.8,376.78,337.22Z" transform="translate(-101.93 -15.32)"/><path class="d" d="M303.06,289.22" transform="translate(-101.93 -15.32)"/><path class="e" d="M305.51,301.47c25.77,18.72,20.71,39.28,38.69,52.9,25.64,19.41,63.19,17.49,90-2.54,12.76-9.53,19.63-31.8,26.45-47.3,5.46-12.4,21.42-24.92,26.93-25.95a9.73,9.73,0,0,1,3.93,0c7.16,0,3.67,6.25,3.67,8.08,0,4.12-.4,4.67-1.28,9.37-4.63,24.57-34,59.87-73.33,79.79-6.85,3.47-13.1,10-23.35,13.13-7.87,2.44-13.88,4.56-14.8,4.15-18.65-8.41-39.44-20-75.76-49.29-17-13.69-31.7-45.79-30-54.73C277.56,284.42,294.17,293.23,305.51,301.47Z" transform="translate(-101.93 -15.32)"/><path class="e" d="M390.46,306c-7.28,1.65-15.46-.06-22.75,1.59-7.14,1.62-17.58,10-24.73,11.61,25.94,4,73.79.65,97-1.14-7-1.59-17.46-9.36-24.49-11C408.07,305.43,397.86,307.69,390.46,306Z" transform="translate(-101.93 -15.32)"/><path class="e" d="M406.74,192.49c-.82-2.36,20.48-17.16,44.08-14,11.83,1.6,22.53,7.5,22,9.55s-12.43-.91-32.33,0C418.1,189.11,407.3,194.12,406.74,192.49Z" transform="translate(-101.93 -15.32)"/><path class="e" d="M369.2,192.49c.82-2.36-20.49-17.16-44.08-14-11.84,1.6-22.54,7.5-22,9.55s12.42-.91,32.32,0C357.83,189.11,368.64,194.12,369.2,192.49Z" transform="translate(-101.93 -15.32)"/><path class="d" d="M316.81,351.83l.58,14.05c-13.32,7.25-19.19,15.51-22,22-14.26,32.64,18.63,87.4,84.85,133.35h10.26c66.23-45.95,99.12-100.71,84.86-133.35-2.85-6.53-8.72-14.79-22-22l-.4-11.1" transform="translate(-101.93 -15.32)"/><path class="d" d="M292.06,393.06a291,291,0,0,1-56.57,33c-15.57,6.84-33.49,12.29-68.7,22.9-28.56,8.61-36.58,5.47-46.13,13.47-17.09,14.31-18.61,40.51-17.43,59.66" transform="translate(-101.93 -15.32)"/><path class="d" d="M472.87,382.71a291.26,291.26,0,0,0,56.58,33c15.57,6.84,33.49,12.29,68.7,22.9,29.83,9,36.51,6.16,46.13,13.47,19.25,14.64,22.79,42.25,22.89,62.7" transform="translate(-101.93 -15.32)"/></svg>